# xmcd
# 
# Track frame offsets:
#     150
#     2832
#     10052
#     16804
#     23657
#     30459
#     37035
#     46380
#     53803
#     57503
#     61112
#     74999
#     81534
#     90890
#     96694
#     103432
#     111957
#     132400
#     137162
#     141226
#     146227
#     150768
#     154775
#     158817
#     162464
#     165657
#     169304
#     172804
#     175938
#     179678
#     183017
#     187480
#     190752
#     194496
#     197846
#     201875
#     206178
#     210402
#     215126
#     219477
#     224119
#     227391
#     231506
#     235257
#     240868
#     244414
#     247942
#     249002
#     256797
#     261471
#     266003
#     267322
#     269141
#     278670
#     279627
#     285771
#     292881
# 
# Disc length: 3986
# 
# Revision: 0
# Processed by: cddbd v1.5.2PL0 Copyright (c) Steve Scherf et al.
# Submitted via: fre:ac v1.0.17
# 
DISCID=680f9039
DTITLE=久石 譲＆福田 裕彦 - 天外魔境II 卍MARU
DYEAR=1992
DGENRE=Soundtrack
TTITLE0=タイトル
TTITLE1=オープニング(宇宙空間)
TTITLE2=卍丸のテーマ
TTITLE3=極楽のテーマ
TTITLE4=カブキのテーマ
TTITLE5=絹のテーマ
TTITLE6=Lマップ(通常)
TTITLE7=破滅への確実な歩み
TTITLE8=根の進撃
TTITLE9=鋼鉄城のテーマ
TTITLE10=殺意
TTITLE11=ボスバトル
TTITLE12=Lマップ(聖剣有り)
TTITLE13=機械獣デデベ
TTITLE14=魔獣
TTITLE15=神への挑戦
TTITLE16=エンディング
TTITLE17=のどかな村
TTITLE18=活気あふれる城下町
TTITLE19=根の一族に殺された者たちへのレクイエム
TTITLE20=盆と正月のテーマ
TTITLE21=世捨て人のテーマ
TTITLE22=桃源郷
TTITLE23=知的静寂
TTITLE24=霊験あらたか
TTITLE25=神聖な空間
TTITLE26=激闘
TTITLE27=死闘
TTITLE28=果てなき戦い
TTITLE29=静寂の中を進む
TTITLE30=闇に潜む魔物
TTITLE31=邪神崇拝
TTITLE32=生き物の腹の中へ
TTITLE33=死闘の予感
TTITLE34=悪の楽園
TTITLE35=ワタシのんきな宣教師
TTITLE36=金、それが人生
TTITLE37=ナルシストのテーマ
TTITLE38=ナルシストの剣舞
TTITLE39=大いなる馬鹿
TTITLE40=高速飛行する乗り物
TTITLE41=地上軽量級の乗り物
TTITLE42=地上中量級の乗り物
TTITLE43=地上重量級の乗り物
TTITLE44=潜水艦
TTITLE45=間抜けな乗り物
TTITLE46=聖剣は我が手に
TTITLE47=暗黒の歴史
TTITLE48=したたかな女たち
TTITLE49=商店街
TTITLE50=巨大な味方登場
TTITLE51=仲間の死を越えて
TTITLE52=神との別れ
TTITLE53=武装
TTITLE54=魔物の潜む洞窟
TTITLE55=EXTRA1
TTITLE56=EXTRA2
EXTD=YEAR: 1992
EXTT0=
EXTT1=
EXTT2=
EXTT3=
EXTT4=
EXTT5=
EXTT6=
EXTT7=
EXTT8=
EXTT9=
EXTT10=
EXTT11=
EXTT12=
EXTT13=
EXTT14=
EXTT15=
EXTT16=
EXTT17=
EXTT18=
EXTT19=
EXTT20=
EXTT21=
EXTT22=
EXTT23=
EXTT24=
EXTT25=
EXTT26=
EXTT27=
EXTT28=
EXTT29=
EXTT30=
EXTT31=
EXTT32=
EXTT33=
EXTT34=
EXTT35=
EXTT36=
EXTT37=
EXTT38=
EXTT39=
EXTT40=
EXTT41=
EXTT42=
EXTT43=
EXTT44=
EXTT45=
EXTT46=
EXTT47=
EXTT48=
EXTT49=
EXTT50=
EXTT51=
EXTT52=
EXTT53=
EXTT54=
EXTT55=
EXTT56=
PLAYORDER=
